<?xml version="1.0" encoding="utf-8"?>
<svg xmlns="http://www.w3.org/2000/svg" width="202" height="49" xmlns:xlink="http://www.w3.org/1999/xlink">
  <defs>
    <path id="a" d="M26.26.453H.233v37.483H26.26V.453z"/>
    <path id="c" d="M0 48.547h201.823V.47H0z"/>
  </defs>
  <g fill="none" fill-rule="evenodd">
    <path fill="#F5AF1F" d="M41.586.595c3.313 5.396 2.744 12.31-1.408 17.093l-26.79 30.857H.002L41.587.595z"/>
    <path fill="#91699C" d="M33.7 48.547h17.71c.877 0 1.687-.466 2.125-1.224.438-.756.438-1.688 0-2.445l-6.732-11.63-13.104 15.3z"/>
    <g transform="translate(5.898 .017)">
      <mask id="b" fill="#fff">
        <use xlink:href="#a"/>
      </mask>
      <path fill="#4DBDBD" d="M26.26 7.928L21.93.453.234 37.936" mask="url(#b)"/>
    </g>
    <path fill="#E4547F" d="M48.397 11.995l-31.67 36.55H30.66l16.53-19.3c4.055-4.733 4.633-11.518 1.438-16.866l-.23-.39z"/>
    <path fill="#1A2651" d="M67.583 20.434H63.54c-.09-.45-.134-.924-.134-1.42 0-.464.045-.92.135-1.372h11.41c.09.45.14.908.14 1.373 0 .495-.04.97-.13 1.42h-4.04V33.83c-.27.03-.54.056-.81.08-.27.022-.53.032-.79.032s-.53-.007-.82-.022c-.29-.015-.59-.046-.89-.09V20.434zm7.607 1.756c.227-.045.44-.078.644-.1.204-.023.426-.035.666-.035.226 0 .45.016.667.045.218.03.432.068.643.114.046.075.087.184.124.325.038.14.072.29.1.45.032.15.057.31.08.47l.057.39c.34-.47.74-.89 1.22-1.25.48-.37 1.09-.56 1.81-.56.15 0 .33 0 .52.02.2.01.34.03.43.06.03.15.06.32.07.52.02.19.02.4.02.61 0 .25-.01.53-.03.83-.02.3-.06.58-.12.85-.16-.03-.35-.05-.55-.05h-.37c-.25 0-.54.02-.85.07-.31.05-.62.19-.9.41-.28.22-.52.56-.71 1.01-.19.45-.28 1.08-.28 1.89v5.54c-.27.05-.54.08-.81.09-.27.02-.53.02-.79.02s-.51-.01-.78-.02c-.26-.02-.53-.05-.82-.09V22.19zm14.676 6.306c-.18-.03-.376-.056-.587-.08-.22-.022-.4-.034-.57-.034-.74 0-1.32.133-1.75.394-.43.264-.65.687-.65 1.273 0 .39.08.69.25.9.16.21.36.36.59.46.23.09.48.15.74.18.26.02.49.03.69.03.22 0 .45-.02.67-.06.22-.04.42-.07.58-.1v-2.97zm0-2.32c0-.36-.06-.652-.18-.88-.12-.222-.287-.4-.497-.527-.22-.13-.48-.22-.78-.26-.31-.05-.65-.07-1.03-.07-.82 0-1.68.16-2.6.47-.21-.39-.37-.76-.48-1.11-.11-.35-.16-.76-.16-1.24.66-.23 1.32-.4 1.98-.5.66-.11 1.28-.16 1.85-.16 1.56 0 2.79.37 3.67 1.12.88.75 1.32 1.95 1.32 3.6v6.76c-.53.16-1.17.32-1.92.47-.75.15-1.61.22-2.55.22-.77 0-1.48-.07-2.11-.2-.64-.14-1.19-.36-1.65-.68-.46-.32-.81-.72-1.06-1.22s-.38-1.11-.38-1.83.15-1.33.46-1.81c.31-.49.71-.88 1.19-1.17.49-.3 1.04-.51 1.64-.63.6-.13 1.2-.19 1.8-.19.44 0 .92.02 1.45.06v-.27zm4.266-3.963c.362-.075.696-.12 1.005-.135.31-.015.576-.022.802-.022.3 0 .6.007.9.022.3.016.58.053.83.112l2.55 8.67 2.5-8.67c.25-.045.52-.078.81-.1.28-.023.57-.034.86-.034.22 0 .48.007.78.022.29.016.63.06 1 .135l-4.43 11.62c-.29.045-.59.074-.91.09-.32.014-.58.02-.79.02-.23 0-.48-.006-.77-.02-.29-.016-.56-.054-.81-.113L94.1 22.213zm20.433 4.547c-.03-.72-.23-1.3-.6-1.743-.367-.444-.883-.665-1.546-.665-.76 0-1.33.21-1.72.63-.4.42-.63 1.014-.7 1.78h4.56zm-4.583 2.23c.06.902.376 1.555.948 1.96s1.324.608 2.258.608c.51 0 1.035-.048 1.568-.147.534-.09 1.043-.23 1.525-.41.17.3.31.66.43 1.08.12.42.19.87.21 1.35-1.17.45-2.5.68-3.97.68-1.08 0-2.01-.15-2.79-.45-.77-.3-1.4-.71-1.89-1.25-.49-.53-.85-1.16-1.08-1.9-.23-.73-.35-1.54-.35-2.41 0-.85.12-1.65.37-2.41.24-.75.6-1.4 1.08-1.96.48-.55 1.06-.99 1.76-1.31.7-.32 1.52-.48 2.45-.48.82 0 1.54.15 2.17.43.64.29 1.17.68 1.62 1.17.45.5.78 1.09 1.01 1.77.23.69.34 1.42.34 2.2 0 .29-.01.57-.03.85-.02.28-.05.5-.08.66H110zm10.048-11.62c.54-.088 1.075-.134 1.602-.134.51 0 1.038.046 1.58.135V29.2c0 .465.025.842.078 1.125.053.287.136.508.25.665.112.157.26.268.44.327.18.06.406.09.677.09.12 0 .252-.005.395-.02.143-.015.282-.038.418-.068.165.61.247 1.21.247 1.8v.33c0 .09-.014.2-.044.32-.24.07-.53.13-.87.16-.338.03-.652.04-.936.04-1.16 0-2.09-.32-2.788-.96-.71-.64-1.05-1.68-1.05-3.12V17.38zm15.893 10.675l-.926-7.813-3.43 7.813h4.356zm-1.897-10.403c.195-.03.432-.048.71-.056.28-.007.523-.012.735-.012.23 0 .46.005.69.012.24.008.44.025.62.056l2.22 16.19c-.43.045-.87.067-1.31.067-.36 0-.73-.03-1.1-.07l-.43-3.81h-5.46l-1.64 3.8c-.36.04-.77.06-1.22.06-.21 0-.42-.01-.62-.01-.2-.01-.39-.03-.55-.06l7.39-16.19zm15.644 6.35c-.178-.046-.367-.075-.563-.09-.195-.015-.413-.022-.655-.022-.752 0-1.426.172-2.02.518-.594.344-1.106.807-1.535 1.383-.43.58-.756 1.24-.982 1.97-.225.73-.34 1.48-.34 2.24 0 .72.13 1.28.384 1.68s.64.6 1.15.6c.46 0 .92-.15 1.35-.45.43-.3.83-.71 1.19-1.25.36-.53.68-1.15.95-1.87.27-.71.48-1.47.63-2.28l.43-2.4zm1.31 4.93c-.164.902-.293 1.675-.383 2.32-.09.645-.135 1.21-.135 1.69v.46c0 .114.014.253.045.417-.166.03-.343.05-.53.06-.19.01-.366.02-.53.02-.168 0-.34-.01-.52-.03-.182-.02-.347-.04-.497-.07-.03-.12-.056-.26-.08-.4-.022-.14-.034-.34-.034-.6 0-.18.02-.43.058-.75.037-.32.093-.62.17-.89-.182.33-.408.67-.68 1.01-.27.34-.586.66-.947.94-.36.28-.764.51-1.207.69-.444.18-.923.27-1.435.27-.992 0-1.746-.33-2.257-.98-.512-.66-.767-1.55-.767-2.67 0-1.07.17-2.11.5-3.12.33-1.02.82-1.92 1.47-2.71s1.46-1.43 2.43-1.91c.97-.48 2.09-.72 3.36-.72.17 0 .34 0 .52.02l.45.04c.17-.87.3-1.62.39-2.25.09-.63.14-1.19.14-1.67v-.45c0-.11-.01-.24-.02-.39.17-.03.37-.06.6-.07.24-.02.44-.02.6-.02.15 0 .32 0 .51.01s.36.03.51.06c.05.3.07.58.07.83 0 .34-.03.79-.1 1.33-.06.54-.14 1.06-.23 1.55L151 28.91zm3.094-6.642c.18-.03.373-.053.576-.067.202-.015.403-.022.597-.022.226 0 .44.01.643.03.204.02.397.04.577.07l1.31 9.28 2.912-5.83c.34-.7.62-1.34.83-1.92.21-.57.32-1.03.34-1.36v-.16c.19-.03.39-.05.61-.07.21-.01.42-.02.63-.02.22 0 .44.01.66.03.22.02.41.04.6.07v.11c0 .24-.04.49-.12.76-.08.27-.22.61-.43 1.03-.86 1.64-1.74 3.26-2.63 4.86-.9 1.6-1.79 3.21-2.68 4.81-.41.05-.8.07-1.18.07-.17 0-.37-.01-.6-.01-.23-.01-.43-.03-.6-.06l-2.07-11.56zm13.094-2.386c0-.435.038-.85.114-1.238.075-.39.172-.788.293-1.194.21-.03.436-.053.677-.068.24-.015.452-.022.632-.022s.388.007.62.022c.234.015.448.038.644.068-.015.435-.06.853-.134 1.25-.077.397-.174.79-.294 1.182-.212.03-.438.05-.678.056-.242.007-.45.012-.633.012-.17 0-.37-.005-.61-.012-.24-.008-.45-.025-.64-.056zm.024 4.166h-1.4c0-.3.018-.594.056-.88.037-.283.115-.585.236-.9h3.613l-2.032 11.552c-.167.03-.357.05-.575.056-.22.007-.412.012-.577.012-.165 0-.34-.005-.52-.012s-.353-.026-.518-.056l1.717-9.772zm7.2 4.345c-.225-.09-.467-.203-.722-.338-.257-.134-.49-.307-.7-.518-.21-.21-.387-.48-.53-.8-.144-.33-.215-.71-.215-1.16 0-.56.113-1.06.34-1.5.225-.44.54-.82.947-1.13.406-.31.892-.55 1.455-.71.565-.17 1.193-.25 1.886-.25.617 0 1.203.06 1.76.2.558.13.994.29 1.31.45-.12.58-.338 1.15-.655 1.69-.256-.12-.61-.25-1.06-.37-.45-.13-.933-.19-1.445-.19-.647 0-1.185.11-1.614.33-.43.22-.65.61-.65 1.17 0 .34.1.63.3.86.2.23.56.45 1.09.66l.49.22c.28.13.58.28.89.43.31.15.59.33.83.55.25.21.45.48.61.78.16.31.23.68.23 1.14 0 .72-.14 1.34-.41 1.85-.28.51-.65.94-1.12 1.28-.48.33-1.03.59-1.65.75-.63.16-1.3.25-2.02.25-.61 0-1.2-.06-1.77-.16-.58-.11-1.06-.24-1.44-.41.03-.33.08-.65.17-.95.08-.3.2-.59.37-.86.39.16.85.29 1.37.39.52.1 1.01.14 1.46.14.37 0 .73-.04 1.06-.1.33-.07.61-.17.86-.32.24-.15.43-.34.57-.58.14-.24.21-.54.21-.9 0-.47-.14-.82-.41-1.05-.27-.24-.65-.45-1.15-.65l-.72-.297zm11.424 3.918c.707 0 1.313-.19 1.818-.573.504-.384.914-.868 1.23-1.453.316-.585.55-1.22.7-1.903.15-.684.225-1.325.225-1.925 0-.86-.2-1.51-.58-1.96-.39-.45-.93-.68-1.64-.68-.71 0-1.31.19-1.81.58-.5.39-.91.87-1.22 1.46-.32.58-.55 1.22-.69 1.9-.14.68-.22 1.31-.22 1.9 0 .85.18 1.5.55 1.95.37.45.91.67 1.61.67m-.23 1.78c-1.4 0-2.45-.39-3.16-1.16-.71-.78-1.06-1.87-1.06-3.28 0-.83.13-1.69.38-2.6.25-.91.65-1.74 1.18-2.48.53-.74 1.2-1.36 2.01-1.85.8-.49 1.75-.73 2.85-.73 1.41 0 2.47.39 3.18 1.17.7.78 1.06 1.88 1.06 3.29 0 .84-.13 1.71-.39 2.61-.26.9-.65 1.72-1.17 2.46-.53.74-1.2 1.35-2.01 1.83-.81.48-1.78.72-2.89.72m8.17-.27c.17-.95.35-1.95.55-3 .2-1.05.39-2.07.57-3.05.17-.98.32-1.88.44-2.7.12-.82.18-1.47.18-1.95 0-.2 0-.35-.01-.46-.01-.12-.03-.25-.06-.42.16-.03.34-.05.54-.06.19-.01.37-.02.54-.02.15 0 .32.003.51.01.19.01.36.03.51.06.03.12.05.25.07.39.01.14.02.34.02.594 0 .345-.02.683-.07 1.014.19-.27.403-.53.64-.77.23-.24.49-.46.774-.65.286-.2.602-.35.95-.46.345-.12.73-.17 1.15-.17.12 0 .252 0 .395.02.142.01.26.03.35.06 0 .3-.03.64-.1 1.03-.07.38-.188.706-.35.98-.06-.02-.15-.03-.28-.05-.13-.01-.25-.02-.37-.02-1.01 0-1.827.36-2.45 1.08-.628.72-1.076 1.83-1.346 3.33l-.92 5.2c-.315.045-.623.067-.924.067h-.562l-.74-.07z"/>
    <path fill="#819BB1" d="M109.82 40.964h-1.64v-.59h3.99v.59h-1.647v4.783h-.704m4.17-2.654c0 1.147.62 2.176 1.72 2.176s1.72-1.02 1.72-2.24c0-1.07-.56-2.19-1.72-2.19-1.15 0-1.73 1.06-1.73 2.24m4.18-.09c0 1.85-1.13 2.83-2.5 2.83-1.43 0-2.43-1.1-2.43-2.73 0-1.71 1.06-2.83 2.5-2.83 1.47 0 2.42 1.12 2.42 2.71m2.61-2.63v3.18c0 1.2.53 1.71 1.25 1.71.8 0 1.31-.53 1.31-1.72v-3.18h.7v3.14c0 1.65-.87 2.32-2.04 2.32-1.11 0-1.94-.63-1.94-2.3v-3.16h.7zm6.18 2.52h.71c.74 0 1.21-.41 1.21-1.02 0-.7-.51-1-1.24-1.01-.34 0-.58.03-.69.06v1.96zm-.7-2.45c.35-.07.85-.11 1.33-.11.74 0 1.22.13 1.56.44.27.24.42.6.42 1.02 0 .71-.45 1.18-1.02 1.37v.02c.41.14.66.52.79 1.08.17.75.3 1.27.41 1.47h-.72c-.09-.15-.21-.62-.36-1.29-.16-.75-.45-1.02-1.08-1.05h-.66v2.33h-.69v-5.3z"/>
    <mask id="d" fill="#fff">
      <use xlink:href="#c"/>
    </mask>
    <path fill="#819BB1" d="M131.582 45.747h.696v-5.374h-.696m2.925 5.375v-5.374h.76l1.726 2.72c.4.628.712 1.195.967 1.745l.016-.01c-.063-.72-.08-1.37-.08-2.21v-2.25h.657v5.37h-.703l-1.712-2.73c-.376-.6-.734-1.21-1.007-1.8h-.02c.04.68.06 1.32.06 2.22v2.29h-.65zm10.373-.238c-.31.11-.928.293-1.655.293-.815 0-1.487-.208-2.014-.71-.46-.446-.75-1.164-.75-2 .01-1.603 1.11-2.776 2.92-2.776.63 0 1.11.136 1.35.248l-.16.566c-.28-.12-.64-.23-1.19-.23-1.31 0-2.16.82-2.16 2.16 0 1.37.83 2.17 2.08 2.17.46 0 .77-.06.93-.14v-1.6h-1.09v-.55h1.78v2.59zm7.42-1.995l-.526-1.546c-.12-.36-.2-.67-.28-.99h-.015c-.09.32-.17.64-.28.97l-.53 1.55h1.62zm-1.765.542l-.56 1.69h-.718l1.83-5.373h.838l1.84 5.373h-.744l-.57-1.69h-1.91zm5.033 1.69v-5.373h.76l1.725 2.72c.4.628.713 1.195.968 1.745l.02-.01c-.06-.72-.08-1.37-.08-2.21v-2.25h.66v5.37h-.7l-1.71-2.73c-.37-.6-.73-1.21-1.01-1.8h-.02c.04.68.06 1.32.06 2.22v2.29h-.65zm6.967-.55c.177.033.432.04.704.04 1.48 0 2.29-.828 2.29-2.28.01-1.27-.71-2.073-2.18-2.073-.36 0-.63.032-.82.07v4.243zm-.696-4.753c.42-.063.92-.11 1.47-.11 1 0 1.71.23 2.18.67.48.437.76 1.06.76 1.928 0 .878-.27 1.595-.78 2.09-.51.502-1.34.774-2.39.774-.5 0-.91-.025-1.27-.065v-5.28zm9.74.52h-1.64v-.59h3.99v.59h-1.65v4.783h-.71m4.65-2.854h.71c.74 0 1.21-.407 1.21-1.02 0-.695-.51-.996-1.24-1.005-.34 0-.58.032-.69.063v1.97zm-.7-2.45c.35-.07.86-.11 1.33-.11.74 0 1.22.136 1.56.44.27.24.42.605.42 1.02 0 .71-.45 1.18-1.02 1.372v.024c.42.14.66.52.79 1.08.17.75.3 1.27.41 1.47h-.72c-.09-.15-.21-.62-.36-1.29-.16-.74-.45-1.02-1.08-1.05h-.66v2.32h-.7v-5.3zm7.99 3.072L183 41.97c-.12-.356-.2-.67-.28-.986h-.014c-.08.318-.17.646-.274.972l-.526 1.554h1.624zm-1.77.542l-.56 1.69h-.72l1.83-5.373h.84l1.84 5.373h-.75l-.58-1.69h-1.91zm5.79 1.69l-1.76-5.373h.75l.84 2.647c.23.73.43 1.38.57 2.01h.01c.15-.62.37-1.3.61-2l.91-2.65h.74l-1.93 5.38h-.77zm7.08-2.52h-2.1v1.94h2.33v.58h-3.03v-5.373h2.91v.582h-2.22v1.698h2.09m2.15-2.28h.69v4.792h2.3v.58h-3" mask="url(#d)"/>
  </g>
</svg>
