<?xml version="1.0" encoding="utf-8"?>
<svg xmlns="http://www.w3.org/2000/svg" width="203" height="62" xmlns:xlink="http://www.w3.org/1999/xlink">
  <defs>
    <path id="a" d="M0 61.444h202.804V.212H0z"/>
  </defs>
  <g fill="none" fill-rule="evenodd">
    <path fill="#6C6E70" d="M102.892 47.146v1.915h-.433v-1.89l-1.73-2.84h.46l1.48 2.49 1.51-2.49h.45"/>
    <g transform="translate(0 .546)">
      <path fill="#6C6E70" d="M105.448 46.154c0 .29.04.56.118.81.08.25.198.468.353.654.15.186.35.333.58.44.23.108.49.16.79.16.3 0 .57-.052.8-.158.23-.107.42-.253.58-.442.15-.188.27-.41.34-.664.07-.255.11-.532.11-.832 0-.29-.04-.56-.11-.81-.08-.253-.19-.473-.35-.658-.16-.185-.35-.33-.58-.437-.23-.107-.5-.16-.81-.16-.3 0-.57.057-.8.172-.23.11-.43.27-.58.46-.16.19-.28.41-.36.67-.08.25-.12.52-.12.79zm4.168-.015c0 .35-.052.68-.157.98-.11.3-.26.56-.46.77-.2.22-.45.38-.73.5s-.62.18-.98.18-.68-.06-.96-.17c-.29-.12-.53-.28-.72-.49-.2-.22-.35-.47-.46-.77-.11-.31-.16-.64-.16-1.01 0-.36.05-.69.16-.99.1-.3.25-.56.45-.78.2-.22.44-.39.73-.51s.61-.18.98-.18c.35 0 .67.06.95.17.28.11.52.28.72.49.2.21.35.47.45.77.1.3.16.63.16 1.01zm4.312-2.37h.41l-.017 2.96c0 .29-.04.55-.11.78-.08.23-.19.42-.34.58-.15.15-.34.28-.57.36-.23.08-.5.13-.81.13-.3 0-.55-.04-.77-.12-.21-.08-.39-.19-.54-.34-.14-.15-.25-.33-.33-.53-.08-.21-.13-.45-.15-.72v-.12l.02-3.01h.41l-.01 2.97c0 .23.03.43.09.61s.14.33.26.46.27.22.45.29c.18.07.4.1.64.1.23 0 .44-.03.61-.09.18-.06.33-.14.44-.26.12-.12.21-.27.27-.45.06-.18.09-.4.1-.66l.02-3.01zm2.218 2.19h.953c.15 0 .31-.02.47-.04.15-.03.3-.08.42-.15.12-.07.22-.17.3-.29.08-.12.12-.27.12-.45 0-.19-.04-.34-.1-.45-.07-.12-.16-.21-.27-.28-.12-.07-.26-.12-.41-.14-.16-.03-.33-.04-.52-.04h-.98v1.82zm2.534 2.55l-.496-1.36c-.058-.16-.117-.29-.176-.4-.058-.11-.128-.19-.21-.25-.078-.07-.174-.11-.285-.14-.11-.03-.247-.04-.41-.04h-.97v2.18h-.423v-4.74h1.532c.15 0 .302.02.453.04.153.02.3.06.44.11.142.05.266.12.377.21.11.09.197.2.263.34.067.14.1.31.1.5 0 .16-.027.3-.082.44-.054.13-.13.25-.23.34-.1.1-.22.18-.36.25-.138.06-.292.11-.46.14l-.01.02h.003c.158.03.284.08.382.16.095.07.182.17.26.3.075.13.148.29.22.48.074.19.164.42.273.69l.27.68h-.45zm6.646-4.13c-.287-.22-.674-.34-1.16-.34-.323 0-.603.06-.84.18-.236.12-.434.28-.59.48-.156.2-.27.43-.348.68-.076.25-.113.52-.113.78 0 .27.034.52.104.77.07.24.18.45.33.64.14.18.33.33.56.44.23.11.5.16.82.16.29 0 .55-.04.78-.1.23-.07.43-.17.58-.31l.13.31c-.19.15-.42.26-.69.34-.27.07-.58.11-.93.11-.35 0-.66-.06-.93-.19s-.5-.3-.68-.51c-.19-.22-.32-.47-.42-.76-.1-.28-.14-.59-.14-.92 0-.34.05-.66.15-.97.1-.31.25-.57.45-.8.19-.23.44-.42.72-.56.28-.134.6-.2.96-.2.29 0 .54.03.76.11.22.07.42.185.61.35l-.16.24zm1.43 1.76c0 .29.04.56.12.81.077.25.195.46.352.65.156.18.35.33.58.44.23.11.495.16.797.16.307 0 .574-.05.806-.16.23-.11.43-.26.58-.45.16-.19.27-.41.35-.67.08-.26.12-.53.12-.83 0-.29-.04-.56-.11-.81s-.19-.47-.34-.66c-.15-.19-.34-.33-.57-.44-.23-.11-.5-.16-.81-.16-.3 0-.57.05-.8.17-.23.11-.42.27-.58.46-.16.19-.27.41-.35.67-.08.25-.12.52-.12.79m4.17-.01c0 .36-.05.68-.16.99-.1.3-.26.56-.45.77-.2.22-.44.38-.73.5s-.61.18-.97.18c-.35 0-.67-.06-.96-.17-.28-.12-.52-.28-.72-.49-.19-.22-.35-.47-.45-.77-.1-.3-.16-.64-.16-1.01 0-.36.06-.69.16-.99.11-.3.26-.56.46-.78.2-.22.45-.39.74-.51s.62-.18.98-.18c.35 0 .67.06.95.17.29.11.53.28.72.49.2.21.35.47.46.77.11.3.16.64.16 1.01m1.49 2.38H132v-4.74h.676l1.55 3.46.36.85.365-.85 1.58-3.46h.65v4.75h-.43v-4.52l-.3.78-1.71 3.74h-.31l-1.65-3.66-.35-.84v1.45m6.55.72h.95c.2 0 .38-.02.54-.06.17-.04.31-.1.43-.18.12-.08.21-.19.28-.32.07-.13.1-.28.1-.45 0-.21-.03-.38-.11-.51-.07-.14-.17-.24-.31-.32-.13-.08-.29-.13-.47-.16s-.39-.05-.61-.05H139v2.04zm-.02 2.33h-.41v-4.75h1.07c.18 0 .36.01.54.02.18.012.34.04.5.08.16.04.3.09.43.16s.24.15.34.25c.1.1.17.22.22.363.06.14.08.305.08.495 0 .25-.05.46-.15.63-.11.177-.25.32-.42.43-.18.11-.38.196-.62.25-.23.055-.48.08-.74.08h-.8l-.02 1.97zm3.74-1.7h2.17l-.8-2.11-.25-.72-.25.72-.86 2.11zm-.67 1.69h-.46l1.99-4.74h.49l1.96 4.73h-.46l-.58-1.388h-2.39l-.55 1.38zm5.18-4.308v4.31h-.43v-4.74h.58l2.46 3.69.44.72v-4.41h.4v4.74h-.58l-2.47-3.69m5.99 1.77v1.92h-.43V46.6l-1.73-2.85h.47l1.48 2.49 1.51-2.49h.45m2.7 3.93c.11.12.22.213.32.28.11.066.22.12.33.154.11.03.22.05.32.06.11.01.22.01.32.01.19 0 .36-.02.52-.05.16-.035.29-.09.4-.16.11-.07.2-.16.27-.27.07-.105.1-.23.1-.37 0-.16-.04-.29-.12-.41-.08-.11-.18-.21-.31-.29-.12-.08-.27-.15-.43-.214-.16-.06-.32-.125-.49-.186-.17-.06-.33-.13-.49-.2-.16-.077-.3-.16-.43-.26-.12-.1-.23-.22-.3-.36-.07-.14-.11-.31-.11-.51 0-.21.05-.388.14-.54.09-.157.22-.28.38-.39.16-.11.33-.187.54-.24.2-.05.4-.08.62-.08.1 0 .21.01.32.02.11.017.22.04.33.073.11.037.21.08.31.13.1.06.19.13.28.21l-.16.306c-.15-.13-.32-.223-.51-.278-.19-.06-.39-.08-.58-.08-.15 0-.3.01-.44.04-.15.03-.28.08-.39.15-.12.07-.21.15-.29.26-.07.1-.11.23-.11.37 0 .15.04.29.12.393.08.108.18.2.31.288.13.09.27.16.44.23.16.07.33.137.5.2.17.07.33.14.49.22.16.076.31.167.44.27.12.11.23.23.3.37.077.14.11.31.11.51 0 .15-.02.29-.07.41s-.114.225-.202.317c-.084.09-.185.17-.3.233-.115.065-.24.116-.375.16-.133.04-.273.07-.42.09-.142.02-.29.02-.43.02-.28 0-.54-.05-.78-.16-.24-.105-.44-.26-.603-.474l.18-.26zm6.86.814h-2.75v-4.75h.43v4.37h2.32m.83-1.99c0 .29.04.56.12.81.07.25.19.47.35.658.15.186.35.333.58.44.23.108.49.16.8.16.31 0 .58-.052.81-.16.23-.11.43-.255.58-.444.15-.19.27-.41.35-.663.08-.25.11-.53.11-.83 0-.29-.03-.56-.11-.81-.07-.25-.19-.47-.34-.66-.16-.18-.35-.33-.58-.43-.23-.1-.5-.16-.81-.16-.3 0-.57.06-.8.17-.23.11-.43.27-.58.46-.16.19-.27.41-.35.67-.08.25-.12.52-.12.79m4.17-.02c0 .36-.05.69-.16.99-.1.3-.25.56-.45.78-.2.22-.44.39-.73.51s-.61.18-.97.18-.676-.06-.96-.17c-.28-.116-.52-.28-.72-.49-.196-.216-.35-.47-.45-.77-.1-.3-.154-.64-.154-1.01 0-.36.05-.69.16-.99.105-.3.26-.56.457-.78.2-.22.44-.39.73-.51s.62-.185.98-.185c.35 0 .67.06.95.175.28.114.52.28.72.493.2.21.35.47.46.77.108.3.16.63.16 1.01m3.16.34v-.37h1.62l-.01 2.16c-.24.12-.5.2-.77.25-.27.05-.55.07-.83.07-.387 0-.727-.053-1.02-.17-.29-.11-.54-.27-.74-.474-.2-.207-.35-.45-.45-.74-.1-.29-.15-.61-.15-.96s.05-.68.16-.99c.11-.31.26-.58.46-.81.2-.24.45-.42.74-.55.29-.14.62-.2.99-.2.174 0 .343.01.504.04.16.03.31.074.44.14.14.06.25.132.35.223.1.09.17.193.22.32l-.18.222c-.06-.1-.13-.19-.22-.26s-.2-.14-.32-.18c-.12-.05-.25-.09-.39-.11-.14-.03-.29-.04-.45-.04-.31 0-.58.06-.81.18-.23.12-.43.27-.59.47-.153.2-.27.43-.35.69-.08.25-.12.52-.12.79 0 .31.04.58.12.83.08.25.205.46.37.64.164.18.37.32.62.41.246.1.535.15.87.15.21 0 .41-.02.6-.05s.37-.09.536-.17v-1.52h-1.21zm3.43.34h2.16l-.8-2.11-.26-.72-.25.72-.86 2.11zm-.67 1.695h-.46l1.98-4.74h.5l1.96 4.74h-.46l-.58-1.39h-2.39l-.56 1.384zm5.18-4.31v4.31h-.43v-4.74h.58l2.46 3.69.43.72v-4.41h.4v4.74h-.59l-2.47-3.69"/>
      <path fill="#404041" d="M94.594 27.43c0-1.99-.5-3.49-1.5-4.5-.997-1.008-2.48-1.512-4.45-1.512h-2.58V33.61h2.162c2.116 0 3.706-.52 4.77-1.56 1.066-1.04 1.598-2.58 1.598-4.62m1.88-.062c0 2.52-.686 4.445-2.053 5.777-1.36 1.334-3.33 2-5.9 2h-4.23V19.882h4.68c2.38 0 4.22.658 5.54 1.973 1.32 1.316 1.98 3.154 1.98 5.513"/>
      <mask id="b" fill="#fff">
        <use xlink:href="#a"/>
      </mask>
      <path fill="#404041" d="M99.614 35.145h1.733V23.702h-1.733v11.443zm-.146-14.542c0-.397.096-.688.292-.872.195-.18.44-.27.732-.27.277 0 .518.1.718.28.203.19.304.48.304.87s-.1.68-.304.87c-.2.19-.44.29-.718.29-.293 0-.537-.1-.732-.29-.196-.19-.292-.48-.292-.87zm6.732 6.765c0 .8.226 1.405.68 1.816.45.41 1.08.616 1.89.616 1.688 0 2.535-.82 2.535-2.463 0-1.72-.856-2.58-2.57-2.58-.813 0-1.44.22-1.877.658-.438.44-.658 1.09-.658 1.953zm-.94 9.7c0 .618.262 1.088.783 1.408.523.32 1.27.48 2.245.48 1.455 0 2.53-.217 3.23-.652.7-.436 1.05-1.026 1.05-1.77 0-.62-.192-1.05-.574-1.29-.383-.24-1.103-.36-2.16-.36h-2.078c-.787 0-1.4.188-1.837.564-.44.375-.66.915-.66 1.62zm9.123-13.365V24.8l-2.12.25c.196.244.37.563.524.955.153.393.23.837.23 1.332 0 1.12-.384 2.015-1.15 2.682-.765.66-1.815 1-3.15 1-.342 0-.662-.03-.96-.08-.738.38-1.11.87-1.11 1.47 0 .31.13.54.39.69.255.15.697.22 1.324.22h2.03c1.24 0 2.19.26 2.86.78.67.52 1 1.28 1 2.27 0 1.26-.5 2.23-1.52 2.9s-2.49.99-4.44.99c-1.49 0-2.65-.28-3.46-.84-.81-.56-1.21-1.34-1.21-2.36 0-.7.23-1.3.67-1.81.45-.51 1.07-.86 1.88-1.04-.29-.13-.54-.34-.73-.62-.2-.28-.3-.6-.3-.97 0-.42.12-.79.34-1.1.22-.31.58-.62 1.06-.91-.59-.24-1.07-.66-1.44-1.24-.37-.59-.56-1.26-.56-2.01 0-1.26.38-2.22 1.13-2.9.76-.68 1.82-1.02 3.2-1.02.6 0 1.14.06 1.62.2h3.96zm2.35 11.442h1.732V23.702h-1.732v11.443zm-.147-14.542c0-.397.098-.688.292-.872.196-.18.44-.27.73-.27.28 0 .52.1.722.28.2.19.3.48.3.87s-.1.68-.3.87c-.203.19-.442.29-.72.29-.293 0-.536-.1-.732-.29-.194-.19-.292-.48-.292-.87zm9.248 13.32c.307 0 .602-.02.887-.067.29-.046.52-.092.68-.14v1.325c-.18.1-.46.17-.83.23-.36.06-.69.09-.98.09-2.21 0-3.32-1.16-3.32-3.5v-6.81h-1.64v-.83l1.64-.72.73-2.44h1v2.66h3.32v1.35H124v6.73c0 .69.162 1.22.49 1.59.327.37.775.56 1.346.56m6.97 0c1.08 0 1.927-.3 2.543-.89.61-.59.92-1.42.92-2.48v-1.04l-1.73.07c-1.38.05-2.37.26-2.98.64-.61.38-.92.97-.92 1.77 0 .63.19 1.1.57 1.43.38.33.91.49 1.59.49zm3.915 1.22l-.34-1.63h-.08c-.57.72-1.14 1.21-1.7 1.46-.56.26-1.27.38-2.12.38-1.13 0-2.02-.29-2.67-.87-.64-.58-.96-1.42-.96-2.49 0-2.31 1.85-3.52 5.55-3.63l1.94-.06v-.71c0-.9-.19-1.56-.58-1.99-.38-.43-1-.64-1.85-.64-.95 0-2.03.29-3.23.88l-.53-1.32c.57-.31 1.18-.55 1.86-.72.67-.17 1.34-.26 2.02-.26 1.36 0 2.38.3 3.03.91.66.61.99 1.58.99 2.91v7.81h-1.28zm4.86 0h1.73V18.9h-1.73m9.34 9.856v3.206h1.45c1.29 0 1.93-.543 1.93-1.63 0-.507-.17-.897-.52-1.168-.34-.272-.84-.408-1.49-.408h-1.36zm0-3.017h1.24c.59 0 1.05-.13 1.37-.37.33-.24.49-.61.49-1.09 0-.86-.65-1.29-1.94-1.29h-1.15v2.73zm-4.12-5.86h5.32c2.08 0 3.62.31 4.62.92 1.01.61 1.51 1.57 1.51 2.87 0 .85-.22 1.58-.66 2.19-.44.6-1.01.99-1.73 1.17v.1c.95.25 1.63.66 2.06 1.25.43.58.64 1.34.64 2.27 0 1.38-.52 2.47-1.56 3.27-1.04.79-2.46 1.19-4.25 1.19h-5.94V19.88zm21.3 3.22c.36 0 .69.02 1.01.08l.23.04-.36 3.85c-.33-.08-.79-.13-1.39-.13-.89 0-1.54.2-1.94.61-.4.41-.6.99-.6 1.76v5.81h-4.08V23.31H164l.635 1.893h.2c.34-.627.815-1.133 1.424-1.52.61-.386 1.22-.58 1.84-.58m7.57 9.365c.49 0 .91-.157 1.27-.47.35-.314.53-.72.53-1.223v-.914l-.94.05c-1.35.05-2.02.54-2.02 1.48 0 .73.38 1.09 1.16 1.09zm3.03 2.672l-.78-1.567h-.09c-.55.68-1.11 1.144-1.68 1.395-.57.25-1.31.377-2.22.377-1.11 0-1.99-.335-2.63-1.003-.64-.67-.96-1.607-.96-2.82 0-1.258.44-2.196 1.31-2.81.87-.62 2.14-.964 3.81-1.04l1.97-.064v-.167c0-.97-.48-1.46-1.44-1.46-.86 0-1.96.29-3.29.88l-1.18-2.69c1.38-.71 3.12-1.06 5.22-1.06 1.52 0 2.69.38 3.52 1.13.83.75 1.25 1.8 1.25 3.15v7.76h-2.83zm5.63 0h4.08V23.31h-4.08v11.83zm-.11-14.774c0-.61.17-1.066.51-1.366.34-.3.89-.448 1.65-.448.76 0 1.31.152 1.66.46.34.305.52.758.52 1.355 0 1.2-.73 1.796-2.19 1.796-1.44 0-2.16-.597-2.16-1.796zm14.5 14.774v-6.45c0-.788-.12-1.38-.34-1.78-.23-.4-.59-.602-1.09-.602-.69 0-1.19.276-1.5.825-.31.55-.46 1.492-.46 2.83v5.177h-4.08V23.31h3.08l.51 1.463h.24c.35-.556.83-.975 1.44-1.252.61-.27 1.32-.41 2.12-.41 1.31 0 2.32.38 3.05 1.14.72.76 1.09 1.83 1.09 3.21v7.7h-4.08z" mask="url(#b)"/>
      <path fill="#27A9E1" d="M8.822 27.232c0 1.594-1.295 2.89-2.89 2.89-1.593 0-2.89-1.296-2.89-2.89 0-1.593 1.297-2.89 2.89-2.89 1.595 0 2.89 1.297 2.89 2.89m56.09-21.456c-3.34 0-6.064 2.725-6.064 6.066v9.275c0 .448-.378.826-.826.826-.446 0-.824-.378-.824-.826V6.28c0-3.347-2.72-6.067-6.065-6.067-3.343 0-6.064 2.72-6.064 6.066 0 15.88-.01 14.1.02 14.83 0 .45-.38.82-.83.82-.45 0-.83-.38-.83-.83v-9.27c0-3.33-2.69-6.03-6-6.07-3.31.03-6 2.74-6 6.06v9.28c0 .45-.38.83-.83.83-.45 0-.83-.38-.83-.83.02-.74.02 1.04.02-14.84 0-3.35-2.72-6.07-6.07-6.07-3.34 0-6.06 2.72-6.06 6.07V21.1c0 .45-.38.827-.83.827-.45 0-.83-.376-.83-.824v-9.28c0-3.34-2.73-6.068-6.07-6.068-3.34 0-6.06 2.72-6.06 6.065v9.82C1.63 22.49 0 24.67 0 27.23c0 3.273 2.662 5.934 5.932 5.934 3.272 0 5.933-2.66 5.933-5.934 0-2.706-1.82-4.988-4.3-5.7v-9.69c0-1.328 1.08-2.406 2.404-2.406 1.32 0 2.4 1.078 2.4 2.406v9.275c0 1.48.72 2.795 1.83 3.612 2.93 2.156 7.14.07 7.14-3.614V6.28c0-1.33 1.08-2.408 2.4-2.408 1.32 0 2.4 1.08 2.4 2.407l-.01 14.32c0 .61-.11 2.08 1.12 3.48 2.74 3.1 7.84 1.13 7.84-2.97v-9.27c0-1.31 1.04-2.37 2.34-2.41 1.29.03 2.34 1.1 2.34 2.4v9.28c0 4.1 5.1 6.07 7.84 2.97 1.23-1.39 1.12-2.86 1.12-3.48l-.02-14.32c0-1.33 1.08-2.41 2.4-2.41s2.4 1.08 2.4 2.41v14.83c0 3.68 4.21 5.77 7.14 3.61 1.11-.82 1.83-2.13 1.83-3.61v-9.28c0-1.33 1.08-2.41 2.4-2.41s2.4 1.08 2.4 2.4V23.7c0 1.04.84 1.88 1.87 1.88.98 0 1.78-.8 1.78-1.78V11.84c0-3.345-2.72-6.067-6.06-6.067" mask="url(#b)"/>
      <path fill="#1B75BB" d="M69.11 38.305c-1.61 0-2.92-1.31-2.92-2.92 0-1.613 1.31-2.923 2.92-2.923 1.61 0 2.92 1.31 2.92 2.922 0 1.61-1.31 2.92-2.92 2.92m5.995-2.92c0-3.306-2.69-5.997-5.996-5.997-3.31 0-6 2.69-6 5.997 0 2.683 1.77 4.96 4.2 5.722v8.71c0 1.326-1.08 2.406-2.41 2.406s-2.41-1.08-2.41-2.407V40.54c0-1.48-.72-2.794-1.83-3.61-2.93-2.16-7.14-.074-7.14 3.61v14.84c0 1.326-1.08 2.405-2.41 2.405s-2.41-1.08-2.41-2.405l.02-14.33c0-.62.11-2.09-1.12-3.48-2.74-3.11-7.85-1.14-7.85 2.96v9.27c0 1.3-1.05 2.37-2.34 2.4-1.3-.04-2.34-1.1-2.34-2.41v-9.27c0-4.098-5.11-6.068-7.85-2.963-1.23 1.393-1.13 2.86-1.13 3.48l.02 14.323c0 1.325-1.08 2.404-2.41 2.404s-2.41-1.08-2.41-2.407V40.54c0-3.684-4.21-5.77-7.14-3.61-1.11.816-1.83 2.13-1.83 3.61v9.275c0 1.327-1.08 2.407-2.41 2.407s-2.41-1.08-2.41-2.407v-11.88c0-1.038-.84-1.88-1.88-1.88-.98 0-1.78.798-1.78 1.78v11.98c0 3.345 2.72 6.065 6.06 6.065 3.34 0 6.06-2.723 6.06-6.065V40.54c0-.447.38-.825.82-.825.45 0 .83.378.83.824v14.84c0 3.34 2.72 6.06 6.06 6.06 3.34 0 6.06-2.72 6.06-6.07 0-15.89.01-14.11-.02-14.84 0-.45.38-.83.822-.83.45 0 .83.38.83.82v9.28c0 3.32 2.69 6.03 6 6.06 3.31-.04 6-2.74 6-6.07v-9.27c0-.45.38-.83.83-.83.45 0 .825.38.825.82-.03.73-.02-1.05-.02 14.84 0 3.34 2.72 6.06 6.064 6.06s6.064-2.72 6.064-6.07v-14.8c0-.45.38-.83.822-.83.45 0 .83.38.83.82v9.27c0 3.34 2.72 6.06 6.06 6.06 3.345 0 6.065-2.72 6.065-6.07v-8.73c2.398-.79 4.13-3.04 4.13-5.7" mask="url(#b)"/>
    </g>
  </g>
</svg>
