<?xml version="1.0" encoding="utf-8"?>
<svg xmlns="http://www.w3.org/2000/svg" width="207" height="74" xmlns:xlink="http://www.w3.org/1999/xlink">
  <defs>
    <path id="a" d="M35.745 73.404h170.7V.568H0v72.836h35.745v-35.65H0v35.65h35.745z"/>
  </defs>
  <g fill="none" fill-rule="evenodd">
    <path fill="#82BA40" d="M91.198 38.043c.906 0 1.712-.426 2.42-1.28V29.58c-.906-.525-1.625-.79-2.154-.79-1.503 0-2.255 1.642-2.255 4.923 0 2.886.66 4.33 1.98 4.33m-.64-13.058c1.05 0 2.07.24 3.06.723v-7.94l.2-.23h2c1.05 0 1.78.23 2.18.69.4.46.6 1.257.6 2.395V36.96c0 1.16.31 1.948.92 2.363-.11.46-.32.95-.63 1.476-.31.52-.63.9-.96 1.14-1.6-.05-2.77-.66-3.52-1.84-1.32 1.38-2.89 2.06-4.74 2.06-1.84 0-3.26-.77-4.25-2.3-.99-1.53-1.48-3.63-1.48-6.3 0-1.31.17-2.5.51-3.56.34-1.06.8-1.96 1.4-2.71.59-.75 1.29-1.32 2.09-1.72.8-.41 1.66-.61 2.58-.61m16.09 11.88c0 1.02.59 1.54 1.77 1.54.61 0 1.3-.32 2.07-.95v-2.62l-1.1-.05c-.29-.01-.52-.02-.67-.02-1.38 0-2.08.7-2.08 2.1m9.93 2.46c-.11.45-.32.95-.63 1.47-.31.53-.63.91-.95 1.15-1.53-.04-2.72-.62-3.55-1.74-1.43 1.32-2.97 1.97-4.64 1.97-.86 0-1.6-.13-2.24-.41-.64-.28-1.17-.64-1.61-1.1-.44-.46-.77-.99-.99-1.59-.22-.6-.33-1.23-.33-1.89 0-.94.17-1.77.51-2.48.34-.71.8-1.3 1.4-1.77.59-.47 1.28-.83 2.07-1.07.79-.24 1.63-.36 2.53-.36.5 0 .95 0 1.33.01.38.01.72.03 1.01.05v-.63c0-1.4-.72-2.09-2.14-2.09-.92 0-2.54.36-4.84 1.08-.66-.77-1.08-1.96-1.25-3.58.52-.2 1.11-.38 1.76-.56.65-.17 1.31-.33 1.99-.46.68-.13 1.35-.23 2.01-.31.66-.08 1.25-.11 1.78-.11.77 0 1.51.11 2.22.33.71.21 1.34.55 1.87 1 .54.45.97 1.02 1.28 1.73.31.71.47 1.56.47 2.54v6.66c0 1.01.31 1.72.92 2.13m12.3-14.04c.13.61.19 1.22.19 1.82s-.06 1.2-.2 1.79l-3.91-.07v7.54c0 1.03.48 1.54 1.45 1.54h1.84c.29.79.43 1.52.43 2.18 0 .66-.04 1.13-.13 1.42-1.62.22-3.11.33-4.47.33-2.76 0-4.14-1.53-4.14-4.57V28.8l-2.57.03c-.16-.54-.23-1.13-.23-1.77 0-.64.07-1.25.23-1.83l2.56.07v-1.9c0-1.12.22-1.91.64-2.38.43-.47 1.15-.71 2.16-.71h2.01l.23.23v4.76l3.92-.07zm6.74 11.58c0 1.03.59 1.54 1.78 1.54.61 0 1.3-.32 2.07-.95v-2.6l-1.1-.05c-.3-.01-.52-.02-.68-.02-1.38 0-2.07.7-2.07 2.1m9.94 2.46c-.12.46-.32.95-.63 1.47s-.63.9-.96 1.14c-1.54-.05-2.72-.63-3.55-1.74-1.43 1.31-2.97 1.97-4.64 1.97-.86 0-1.61-.13-2.24-.41-.64-.28-1.18-.64-1.61-1.1-.44-.46-.77-.99-.99-1.6-.22-.6-.33-1.23-.33-1.88 0-.94.17-1.76.51-2.48.34-.71.8-1.3 1.39-1.77s1.28-.82 2.07-1.07c.79-.24 1.64-.36 2.54-.36.51 0 .95.01 1.33.02.39.01.72.03 1.01.05v-.63c0-1.39-.72-2.09-2.14-2.09-.92 0-2.53.36-4.84 1.08-.66-.77-1.07-1.96-1.25-3.58.53-.19 1.12-.38 1.76-.55.65-.17 1.31-.32 1.99-.46.68-.13 1.35-.23 2.01-.31.66-.07 1.25-.11 1.78-.11.77 0 1.51.11 2.22.33.71.22 1.34.55 1.87 1 .53.45.96 1.03 1.28 1.74.32.71.48 1.56.48 2.54v6.66c0 1.01.31 1.72.92 2.14"/>
    <path fill="#27A9E1" d="M156.348 32.564v-.426c0-1.225-.13-2.117-.395-2.674-.262-.557-.757-.836-1.48-.836-.768 0-1.305.376-1.61 1.13-.31.756-.462 2.01-.462 3.757 0 .877.07 1.61.19 2.2.12.59.3 1.065.53 1.426.23.37.52.63.87.79.36.17.77.25 1.25.25.51 0 1.07-.11 1.68-.33.62-.21 1.27-.56 1.98-1.05.2.11.4.27.61.48.21.21.4.45.58.71.18.27.33.55.46.84.14.3.23.58.3.84-.72.77-1.66 1.38-2.83 1.84-1.16.46-2.34.69-3.55.69-2.34 0-4.14-.76-5.39-2.29s-1.87-3.71-1.87-6.53c0-1.44.2-2.7.61-3.77.41-1.07.94-1.96 1.61-2.66.67-.7 1.44-1.22 2.3-1.57.87-.35 1.77-.52 2.72-.52.97 0 1.85.13 2.65.4.8.26 1.49.63 2.07 1.12.58.48 1.03 1.05 1.35 1.72.32.67.48 1.41.48 2.22 0 .92-.27 1.57-.8 1.94-.54.38-1.2.56-1.99.56-.66 0-1.26-.06-1.81-.19m11.45 4.29c0 1.03.59 1.54 1.78 1.54.62 0 1.31-.31 2.08-.95v-2.63l-1.11-.05c-.3-.01-.52-.01-.67-.01-1.38 0-2.07.7-2.07 2.1m9.93 2.46c-.11.46-.31.95-.62 1.48-.3.53-.62.91-.95 1.15-1.53-.04-2.72-.62-3.55-1.74-1.42 1.32-2.97 1.97-4.64 1.97-.85 0-1.6-.13-2.23-.4-.63-.27-1.17-.64-1.61-1.1-.44-.46-.76-.99-.98-1.59-.22-.6-.33-1.23-.33-1.88 0-.94.17-1.77.51-2.48.34-.71.81-1.3 1.4-1.77.59-.47 1.29-.82 2.08-1.07.79-.24 1.63-.36 2.53-.36.51 0 .95 0 1.34.02.38.02.72.03 1 .05V31c0-1.39-.71-2.09-2.14-2.09-.92 0-2.53.36-4.83 1.087-.65-.76-1.07-1.953-1.25-3.57.53-.195 1.12-.38 1.76-.555.65-.17 1.31-.323 1.99-.46.68-.13 1.35-.23 2.01-.31.66-.074 1.25-.112 1.78-.112.77 0 1.51.11 2.22.33.71.22 1.34.55 1.87 1 .54.45.97 1.03 1.29 1.74.32.71.47 1.56.47 2.547v6.66c0 1.006.31 1.72.92 2.13m1.94-11.65c.11-.44.32-.925.63-1.46.3-.54.61-.925.92-1.166 2.02.16 3.42 1.15 4.21 2.99.83-1.97 2.21-2.95 4.11-2.95.57 0 1.29.09 2.17.26 0 .68-.11 1.48-.34 2.41-.23.93-.54 1.72-.93 2.38-.37-.13-.93-.24-1.68-.33-1.1 0-1.99.56-2.7 1.68v10.2c-.72.13-1.57.2-2.55.2-.97 0-1.83-.06-2.58-.19V31.1c0-1.64-.41-2.776-1.25-3.41m17.77 3.936h4.31v-.36c0-.81-.18-1.48-.54-2.004-.36-.522-.9-.785-1.62-.785-.7 0-1.21.247-1.55.74-.33.49-.54 1.296-.6 2.41m8.59 3.544h-8.55c.05.98.3 1.73.76 2.28.46.54 1.22.81 2.26.81.53 0 1.13-.07 1.82-.22.69-.15 1.48-.39 2.38-.73.73.75 1.17 1.75 1.35 3.02-1.76 1.25-3.9 1.87-6.45 1.87-1.39 0-2.54-.22-3.47-.66-.93-.43-1.69-1.05-2.27-1.84-.58-.78-.99-1.71-1.23-2.78-.24-1.07-.37-2.24-.37-3.51 0-1.23.15-2.36.44-3.4.3-1.04.75-1.94 1.35-2.7.61-.76 1.37-1.36 2.3-1.8.94-.44 2.03-.66 3.28-.66 1.05 0 2 .18 2.85.53.85.35 1.57.83 2.16 1.44.59.62 1.05 1.35 1.37 2.2.31.85.47 1.79.47 2.79 0 1.34-.14 2.46-.42 3.38"/>
    <path fill="#7F7A78" d="M110.915 55.62c-.464 0-.888-.078-1.27-.23-.38-.15-.71-.374-.983-.666-.274-.292-.485-.65-.635-1.08-.15-.428-.224-.92-.224-1.472 0-.552.085-1.042.253-1.47.168-.43.396-.788.683-1.08.28-.292.62-.515 1-.667.38-.15.79-.228 1.22-.228.27 0 .52.02.74.056.22.038.41.083.57.134.16.05.29.102.39.153.1.05.17.088.21.113l-.27.763c-.06-.038-.14-.08-.25-.124-.11-.045-.23-.09-.37-.134-.14-.045-.29-.082-.45-.11-.17-.028-.33-.042-.5-.042-.35 0-.67.06-.95.18-.28.122-.52.295-.72.524-.2.228-.35.506-.45.833-.11.327-.16.694-.16 1.1 0 .393.05.752.14 1.075.09.324.23.6.42.834.18.232.41.41.69.538.27.126.6.19.97.19.42 0 .78-.045 1.06-.134.28-.088.49-.168.63-.238l.24.763c-.05.03-.13.08-.24.12-.12.05-.26.1-.43.14-.17.05-.38.08-.6.12-.23.04-.48.05-.75.05m6.33-2.62c0-.55-.13-1-.38-1.32-.25-.32-.59-.49-1.03-.49-.44 0-.78.17-1.03.49-.25.33-.38.77-.38 1.33s.12 1.01.38 1.33c.25.33.59.49 1.03.49.43 0 .77-.16 1.02-.49.25-.32.38-.77.38-1.33m.92 0c0 .4-.06.75-.17 1.07-.12.32-.28.59-.48.82-.21.23-.45.41-.74.53-.29.13-.6.19-.94.19-.34 0-.65-.06-.94-.18-.29-.12-.53-.3-.74-.53-.21-.23-.37-.5-.48-.82-.12-.32-.17-.67-.17-1.07 0-.38.05-.74.17-1.06.11-.32.27-.6.48-.82.2-.22.45-.4.74-.52.28-.12.6-.18.93-.18.33 0 .65.06.93.19.28.12.53.3.74.53.2.23.36.5.48.82.11.32.17.67.17 1.06m1.25-2.33c.2-.05.47-.11.8-.16.33-.05.72-.08 1.16-.08.31 0 .58.04.8.13.21.08.4.21.54.37.04-.03.11-.07.21-.13.09-.05.21-.11.35-.16.14-.05.29-.1.47-.14.17-.04.35-.06.55-.06.38 0 .69.06.93.17.24.11.43.27.57.47.14.21.23.45.28.73.05.28.07.58.07.91v2.78h-.89v-2.6c0-.29-.01-.54-.04-.75-.03-.21-.08-.38-.16-.52s-.19-.24-.33-.31-.32-.1-.53-.1c-.3 0-.55.04-.74.12-.2.08-.33.15-.4.21.05.17.09.35.11.55.02.2.04.41.04.62v2.78h-.89v-2.6c0-.29-.02-.54-.05-.75-.04-.21-.09-.39-.17-.53-.08-.14-.19-.24-.32-.31-.14-.07-.31-.1-.53-.1-.09 0-.18 0-.29.01-.1.01-.2.01-.29.02l-.26.03c-.08.01-.13.02-.15.03v4.18h-.89V50.7zm11.66 2.34c0-.58-.14-1.02-.43-1.33-.28-.31-.67-.46-1.14-.46-.27 0-.48.01-.63.03-.15.02-.27.04-.36.07v3.13c.11.09.26.18.47.26.2.08.42.13.67.13.25 0 .47-.05.65-.14.18-.09.33-.22.44-.38.11-.16.19-.35.24-.57.05-.22.07-.45.07-.71m.93 0c0 .38-.05.72-.15 1.04-.1.32-.25.59-.44.82-.19.23-.43.41-.71.53-.27.13-.59.19-.95.19-.28 0-.53-.03-.75-.11-.22-.08-.38-.15-.49-.22v1.98h-.89v-6.6c.21-.05.47-.1.79-.16.32-.06.68-.09 1.1-.09.38 0 .72.06 1.03.18.3.12.57.29.78.52.22.22.39.5.5.82.12.32.18.68.18 1.08m2.93 1.83c.21 0 .4 0 .56-.01.16-.01.3-.03.41-.05v-1.5c-.07-.03-.17-.06-.31-.08-.15-.02-.32-.03-.52-.03-.14 0-.28.01-.43.03-.15.02-.29.06-.41.12-.13.06-.23.14-.32.25-.08.11-.12.25-.12.42 0 .32.1.54.3.67.2.13.48.19.83.19m-.08-4.44c.36 0 .66.05.91.14.25.09.44.23.59.39.15.17.26.37.32.6.06.23.1.49.1.77v3.09l-.32.06c-.14.02-.29.04-.46.06-.17.02-.36.04-.56.05-.2.02-.4.03-.6.03-.28 0-.54-.03-.77-.09-.23-.06-.44-.15-.61-.27-.17-.13-.3-.29-.4-.49-.1-.21-.14-.45-.14-.74 0-.27.06-.5.17-.7.11-.19.26-.35.46-.47.19-.12.42-.21.67-.26.26-.05.52-.08.8-.08.09 0 .18 0 .28.01.1.01.19.02.27.04l.22.04c.07.02.11.02.14.03v-.25c0-.14-.02-.29-.05-.43-.03-.14-.09-.27-.17-.38-.09-.11-.2-.2-.34-.27-.15-.07-.33-.1-.56-.1-.3 0-.55.02-.77.06-.22.04-.39.08-.49.12l-.11-.73c.11-.05.3-.1.57-.15.27-.05.56-.08.87-.08m3.38.27c.2-.05.47-.1.81-.16.34-.05.73-.08 1.16-.08.39 0 .72.06.98.17.26.11.47.27.63.47.15.2.26.44.33.72.06.28.09.59.09.92v2.78h-.89v-2.6c0-.31-.02-.57-.07-.78-.04-.22-.11-.4-.2-.53-.1-.13-.22-.23-.38-.29-.16-.06-.36-.09-.59-.09-.1 0-.2.01-.3.01l-.29.03c-.096.01-.18.02-.25.03-.077.01-.13.02-.16.03v4.18h-.89V50.7zm4.72 5.73c.07.04.16.07.27.09.11.03.22.05.33.05.35 0 .63-.08.82-.24.2-.16.38-.41.54-.76-.4-.76-.78-1.57-1.12-2.42-.35-.85-.64-1.72-.87-2.59h.96c.07.29.15.59.25.92.1.33.21.67.33 1.02.12.35.25.69.39 1.04s.29.69.44 1.01c.25-.67.46-1.33.63-1.98.18-.65.35-1.33.51-2.02h.91c-.23.93-.49 1.83-.77 2.69-.28.86-.59 1.67-.91 2.41-.13.29-.26.53-.4.74-.14.21-.29.38-.45.51-.17.14-.36.23-.56.3-.21.07-.44.1-.7.1-.07 0-.15 0-.22-.01-.08-.01-.15-.02-.23-.04-.07-.01-.14-.03-.2-.05-.06-.02-.107-.04-.13-.05l.16-.72zm9.12-1.58c.97 0 1.45-.33 1.45-.99 0-.2-.04-.37-.13-.52-.08-.14-.2-.26-.347-.37-.15-.1-.32-.19-.506-.27-.19-.08-.39-.15-.6-.23-.245-.08-.47-.17-.69-.28-.22-.1-.406-.23-.56-.37-.16-.14-.28-.31-.376-.51-.09-.19-.14-.43-.14-.71 0-.58.2-1.03.6-1.35.4-.32.94-.49 1.63-.49.4 0 .76.05 1.09.13.33.09.57.18.72.28l-.297.76c-.13-.08-.33-.16-.59-.24-.27-.08-.575-.12-.925-.12-.18 0-.34.02-.49.06-.15.04-.284.09-.4.17-.11.08-.204.17-.27.29-.065.12-.1.26-.1.42 0 .18.035.33.105.45.07.13.17.23.3.32.13.1.28.18.45.26.17.075.36.15.56.227.29.12.55.23.79.35.24.11.44.25.62.41.17.16.31.344.4.565.1.22.14.49.14.8 0 .58-.21 1.02-.63 1.33-.423.31-1.02.47-1.79.47-.26 0-.5-.02-.72-.05-.22-.03-.42-.07-.59-.12-.17-.05-.32-.1-.44-.15-.13-.05-.22-.1-.293-.14l.28-.76c.15.08.37.18.67.28.3.1.67.15 1.1.15m4.98.76c-.54-.02-.93-.13-1.16-.36-.23-.23-.345-.57-.345-1.04v-6l.89-.16v5.95c0 .146.01.267.04.36.02.097.06.174.12.23.05.06.13.1.23.13s.21.05.35.07l-.12.744zm4.56-2.56c0-.56-.126-1-.38-1.33-.25-.33-.59-.49-1.025-.49-.44 0-.78.16-1.03.49-.25.323-.37.77-.37 1.324 0 .56.13 1.01.38 1.33.25.33.6.49 1.03.49.43 0 .78-.16 1.03-.49.25-.32.38-.77.38-1.33m.93 0c0 .4-.06.75-.18 1.07-.11.32-.27.59-.48.82-.2.23-.45.41-.74.53-.28.13-.6.19-.93.19-.34 0-.65-.06-.94-.18-.286-.12-.53-.3-.74-.53-.2-.23-.37-.5-.48-.81-.116-.32-.17-.67-.17-1.065 0-.384.06-.74.17-1.06.113-.32.28-.595.48-.82.21-.23.454-.407.74-.53.29-.12.6-.185.94-.185.34 0 .65.06.933.19.29.12.53.3.74.53.21.225.37.5.48.82.12.32.18.676.18 1.06m4.35-1.694c-.09-.03-.21-.05-.36-.07-.15-.026-.35-.04-.6-.04-.48 0-.85.16-1.1.47-.26.31-.39.73-.39 1.24 0 .287.03.53.11.736.07.2.17.37.29.508.128.13.27.23.43.294.16.06.33.09.5.09.24 0 .45-.03.65-.1.2-.067.35-.14.47-.23v-2.9zm.01 3.674c-.08.05-.22.11-.45.19-.22.08-.47.12-.77.12-.3 0-.58-.05-.84-.15-.26-.095-.49-.24-.69-.44-.2-.2-.35-.45-.47-.75-.11-.3-.17-.66-.17-1.07 0-.36.06-.69.16-.995.11-.3.27-.56.48-.78.21-.22.46-.39.76-.51s.64-.19 1.01-.19c.42 0 .78.03 1.09.092.31.06.57.12.78.17v4.41c0 .76-.2 1.31-.59 1.65-.4.348-1 .52-1.8.52-.32 0-.61-.023-.89-.08-.27-.05-.51-.11-.72-.18l.16-.77c.18.07.4.13.66.19.26.053.53.082.81.082.53 0 .91-.11 1.14-.32.23-.21.35-.54.35-1V55zm4.08-.15c.21 0 .4-.002.56-.012.17-.01.3-.03.41-.06v-1.5c-.06-.03-.17-.06-.31-.08-.14-.02-.31-.04-.52-.04-.13 0-.27.01-.42.03-.15.02-.29.06-.41.12s-.23.14-.31.25c-.08.1-.12.24-.12.41 0 .32.11.54.31.665s.48.19.83.19m-.08-4.44c.36 0 .66.05.91.14.25.09.44.22.59.39.15.17.26.37.32.6.07.23.1.485.1.764v3.09l-.32.05c-.14.02-.29.04-.46.06-.18.02-.36.04-.56.05-.2.02-.4.03-.6.03-.28 0-.54-.03-.77-.087-.24-.06-.44-.15-.61-.27-.17-.126-.31-.29-.4-.49-.1-.206-.15-.45-.15-.735 0-.27.06-.51.17-.7.11-.19.26-.35.456-.47.19-.12.41-.21.67-.27.25-.05.52-.08.8-.08.09 0 .18.01.28.02.1.01.19.026.27.04l.22.04c.07.017.11.02.14.03v-.25c0-.14-.02-.29-.05-.43-.03-.14-.09-.27-.17-.38-.08-.11-.19-.2-.34-.27-.14-.07-.32-.1-.55-.1-.29 0-.55.02-.77.06-.22.04-.38.08-.49.12l-.11-.73c.12-.05.31-.1.58-.15.27-.05.55-.08.87-.08m3.38.26c.2-.05.47-.105.81-.163.34-.056.73-.085 1.17-.085.39 0 .72.06.98.17.26.11.47.27.63.47.15.2.26.44.33.72.06.28.09.59.09.93v2.78h-.89V53c0-.31-.02-.57-.06-.78-.04-.22-.11-.4-.21-.53-.09-.13-.22-.23-.38-.29-.16-.06-.36-.09-.59-.09-.1 0-.2.01-.3.01l-.29.03-.25.03c-.07.01-.12.02-.15.03v4.18h-.89V50.7z"/>
    <path fill="#8CC63E" d="M52.074 63.05l-12.252-7.515-2.677 1.64c-.347.213-.63.67-.63 1.016v14.89c0 .35.283.46.63.24l14.93-9.15c.713-.44.628-1.15.628-1.36 0 .35-.28.46-.63.25m20.604-26.04H57.75c-.35 0-.806.28-1.018.63l-1.645 2.67 7.536 12.22c.213.35.104.63-.245.63h.346c.347 0 .803-.28 1.016-.63l9.18-14.89c.215-.35.106-.63-.243-.63M10.652 20.87h-.344c-.348 0-.804.283-1.018.63L.11 36.387c-.214.344-.105.625.242.625h14.93c.347 0 .803-.28 1.016-.627l1.645-2.668-7.535-12.222c-.214-.346-.105-.63.244-.63M36.516.945c0-.345-.284-.453-.63-.24L20.956 9.86c-.35.214-.63.67-.63 1.015v.343c0-.347.28-.454.63-.242l12.253 7.516 2.67-1.642c.34-.212.63-.667.63-1.013V.947zM20.57 38.41l-1.646 2.668 5.147 8.345 8.37 5.134 2.68-1.64c.35-.213.63-.667.63-1.015v-14.12H21.59c-.35 0-.804.28-1.018.628m20.02-18.94l-2.674 1.64c-.35.214-.63.67-.63 1.015v14.12h14.158c.35 0 .805-.28 1.02-.628l1.642-2.667-5.145-8.35-8.37-5.13z"/>
    <path fill="#27A9E1" d="M52.46 37.643c-.213-.348-.67-.63-1.016-.63H36.516v14.89c0 .346.28.802.63 1.014 3.542 2.174 11.98 7.347 14.928 9.155.347.214.63.105.63-.24v-8.674H61.4c.345 0 .454-.28.24-.63-3.55-5.754-5.673-9.2-9.18-14.885"/>
    <path fill="#27A9E1" d="M36.516 22.125c0-.348-.284-.802-.63-1.015l-14.93-9.156c-.348-.214-.63-.105-.63.243v8.67H11.63c-.345 0-.454.282-.24.628l9.18 14.89c.214.348.67.63 1.017.63h14.93v-14.89z"/>
    <g transform="translate(0 .027)">
      <mask id="b" fill="#fff">
        <use xlink:href="#a"/>
      </mask>
      <path fill="#27A9E1" d="M35.115 57.15l-11.65-7.146-7.166-11.62c-.22-.35-.67-.63-1.02-.63H.35c-.348 0-.457.28-.244.63L9.29 53.27c.214.346.67.628 1.017.628h9.25v9.224c0 .348.28.802.628 1.016l14.93 9.155c.35.214.63.105.63-.242V58.16c0-.346-.28-.8-.63-1.013" mask="url(#b)"/>
    </g>
    <path fill="#27A9E1" d="M72.92 35.617L63.74 20.73c-.213-.35-.67-.63-1.016-.63h-9.25v-9.225c0-.346-.283-.8-.63-1.015L37.914.705c-.35-.213-.63-.105-.63.24v14.89c0 .348.28.802.63 1.016l3.474 2.13 8.18 5.02 7.164 11.62c.212.35.668.63 1.017.63h14.92c.35 0 .45-.28.24-.63"/>
  </g>
</svg>
